<svg width="24" height="24" viewBox="0 0 24 24" fill="none" xmlns="http://www.w3.org/2000/svg">
<path fill-rule="evenodd" clip-rule="evenodd" d="M14.1154 12.0019L17.548 8.56932C17.8328 8.29952 17.9977 7.92478 17.9977 7.50508C17.9972 7.20831 17.909 6.91831 17.744 6.67161C17.5791 6.4249 17.3448 6.23254 17.0708 6.11874C16.7967 6.00494 16.495 5.9748 16.2039 6.03211C15.9127 6.08943 15.645 6.23164 15.4345 6.44083L12.0019 9.88839L8.56932 6.44083C8.28707 6.15857 7.90425 6 7.50508 6C7.1059 6 6.72308 6.15857 6.44083 6.44083C6.15857 6.72308 6 7.1059 6 7.50508C6 7.90425 6.15857 8.28707 6.44083 8.56932L9.88839 12.0019L6.45582 15.4345C6.17102 15.7043 6.00613 16.079 6.00613 16.4987C6.00656 16.7955 6.09481 17.0855 6.25976 17.3322C6.4247 17.5789 6.65898 17.7713 6.93305 17.8851C7.20713 17.9989 7.50876 18.029 7.79994 17.9717C8.09112 17.9144 8.35882 17.7722 8.56932 17.563L12.0019 14.1154L15.4345 17.548C15.7043 17.8328 16.079 17.9977 16.4987 17.9977C16.7955 17.9972 17.0855 17.909 17.3322 17.744C17.5789 17.5791 17.7713 17.3448 17.8851 17.0708C17.9989 16.7967 18.029 16.495 17.9717 16.2039C17.9144 15.9127 17.7722 15.645 17.563 15.4345L14.1154 12.0019Z" fill="#C4CFDE"/>
</svg>
