<svg width="24" height="24" viewBox="0 0 24 24" fill="none" xmlns="http://www.w3.org/2000/svg">
<mask id="mask0_2486_12117" style="mask-type:alpha" maskUnits="userSpaceOnUse" x="0" y="0" width="24" height="24">
<rect width="24" height="24" fill="#D9D9D9"/>
</mask>
<g mask="url(#mask0_2486_12117)">
<path d="M13.2302 24H8.61576C7.98127 24 7.46214 23.5091 7.46214 22.9091V15.2727H5.1549C4.52041 15.2727 4.00128 14.7818 4.00128 14.1818V9.81818C4.00128 9.21818 4.52041 8.72727 5.1549 8.72727H7.46214V6.54545C7.46214 4.8 8.17739 3.15274 9.49252 1.92001C10.8076 0.687283 12.5381 0 14.3838 0H17.8447C18.4792 0 18.9983 0.490909 18.9983 1.09091V5.45455C18.9983 6.05455 18.4792 6.54545 17.8447 6.54545H14.3838V8.72727H17.8447C18.2023 8.72727 18.5368 8.88001 18.756 9.14182C18.9752 9.40364 19.056 9.75272 18.9637 10.08L17.8101 14.4436C17.6832 14.9236 17.2217 15.2727 16.6911 15.2727H14.3838V22.9091C14.3838 23.5091 13.8647 24 13.2302 24ZM9.76937 21.8182H12.0766V14.1818C12.0766 13.5818 12.5957 13.0909 13.2302 13.0909H15.7912L16.368 10.9091H13.2302C12.5957 10.9091 12.0766 10.4182 12.0766 9.81818V6.54545C12.0766 5.96727 12.3188 5.41089 12.7572 4.99635C13.184 4.59271 13.784 4.36364 14.3838 4.36364H16.6911V2.18182H14.3838C13.1495 2.18182 11.9958 2.64001 11.1191 3.4582C10.2654 4.26547 9.76937 5.4 9.76937 6.54545V9.81818C9.76937 10.4182 9.25025 10.9091 8.61576 10.9091H6.30852V13.0909H8.61576C9.25025 13.0909 9.76937 13.5818 9.76937 14.1818V21.8182Z" fill="#5B5C5F"/>
</g>
</svg>
