<svg width="38" height="55" viewBox="0 0 38 55" fill="none" xmlns="http://www.w3.org/2000/svg">
<g clip-path="url(#clip0_2221_14)">
<path d="M33.3816 18.8948C36.1659 17.0546 38.0092 13.8829 38.0092 10.2896C38.0092 4.61542 33.4181 0 27.7766 0H10.2234C4.58193 0 -0.00915527 4.61542 -0.00915527 10.2896C-0.00915527 13.8829 1.83412 17.0546 4.61839 18.8948C1.83412 20.735 -0.00915527 23.9067 -0.00915527 27.5C-0.00915527 31.0933 1.83412 34.265 4.61839 36.1052C1.83412 37.9431 -0.00915527 41.1148 -0.00915527 44.7104C-0.00915527 50.3846 4.60472 55 10.2781 55C16.0107 55 20.6769 50.3342 20.6769 44.5981V35.1083C22.4951 36.7744 24.9103 37.7896 27.5556 37.7896H27.7766C33.4181 37.7896 38.0092 33.1742 38.0092 27.5C38.0092 23.9067 36.1659 20.735 33.3816 18.8948ZM20.6747 3.37104H27.7766C31.5702 3.37104 34.6575 6.47396 34.6575 10.2896C34.6575 14.1052 31.5702 17.2104 27.7766 17.2104H20.6747V3.37104ZM3.34245 10.2896C3.34245 6.47396 6.42976 3.37104 10.2234 3.37104H17.3253V17.2104H10.2234C6.42976 17.2104 3.34245 14.1052 3.34245 10.2896ZM3.34245 27.5C3.34245 23.6844 6.42976 20.5815 10.2234 20.5815H17.3253V34.4208H10.1801C6.40697 34.3956 3.34245 31.2996 3.34245 27.5ZM17.3253 44.5981C17.3253 48.4756 14.1628 51.629 10.2781 51.629C6.45482 51.629 3.34245 48.526 3.34245 44.7104C3.34245 40.8948 6.42976 37.7896 10.2234 37.7896H17.3253V44.5981ZM27.7766 34.4208H27.5556C23.762 34.4208 20.6769 31.3156 20.6769 27.5C20.6769 23.6844 23.762 20.5815 27.5556 20.5815H27.7766C31.5702 20.5815 34.6575 23.6844 34.6575 27.5C34.6575 31.3156 31.5702 34.4208 27.7766 34.4208Z" fill="#C4CFDE"/>
</g>
<defs>
<clipPath id="clip0_2221_14">
<rect width="38" height="55" fill="white"/>
</clipPath>
</defs>
</svg>
