<svg width="24" height="24" viewBox="0 0 24 24" fill="none" xmlns="http://www.w3.org/2000/svg">
<mask id="mask0_2486_12090" style="mask-type:alpha" maskUnits="userSpaceOnUse" x="0" y="0" width="24" height="24">
<rect width="24" height="24" fill="#D9D9D9"/>
</mask>
<g mask="url(#mask0_2486_12090)">
<mask id="path-2-inside-1_2486_12090" fill="white">
<path d="M0.00563624 6.39947C0.213974 5.29697 0.411049 4.19447 1.00791 3.2107C2.37055 0.977426 4.5046 0.118042 6.9596 0.0615039C10.3099 -0.0233039 13.6658 -0.01765 17.0217 0.0615039C19.2965 0.118042 21.3236 0.870004 22.7088 2.84885C23.5984 4.12662 23.9306 5.58531 23.9532 7.09489C24.0038 10.3289 24.0264 13.5685 23.9532 16.8025C23.8912 19.409 22.9903 21.6309 20.5635 22.9539C19.443 23.5645 18.2098 23.8303 16.9542 23.8472C13.6433 23.8868 10.3324 23.9207 7.02153 23.8472C4.53838 23.7907 2.3818 22.9483 1.00227 20.6924C0.405413 19.7143 0.208337 18.6061 0 17.5036V6.40512L0.00563624 6.39947ZM12.016 2.34C10.3718 2.34 8.72765 2.30608 7.08348 2.34566C4.51586 2.40785 2.93925 3.61212 2.4719 5.83408C2.37055 6.30335 2.29735 6.78958 2.29735 7.27016C2.28046 10.3967 2.24105 13.5233 2.30299 16.6499C2.36493 19.7595 3.93026 21.4217 6.92018 21.5348C10.293 21.6592 13.6714 21.6479 17.0443 21.5348C19.533 21.45 21.0139 20.2514 21.4869 18.0916C21.5714 17.7072 21.6502 17.3114 21.6558 16.9156C21.6727 13.3537 21.8698 9.78612 21.5488 6.22985C21.3574 4.12097 19.9553 2.74708 17.8607 2.45873C15.9181 2.193 13.9642 2.37958 12.016 2.34Z"/>
</mask>
<path d="M0.00563624 6.39947C0.213974 5.29697 0.411049 4.19447 1.00791 3.2107C2.37055 0.977426 4.5046 0.118042 6.9596 0.0615039C10.3099 -0.0233039 13.6658 -0.01765 17.0217 0.0615039C19.2965 0.118042 21.3236 0.870004 22.7088 2.84885C23.5984 4.12662 23.9306 5.58531 23.9532 7.09489C24.0038 10.3289 24.0264 13.5685 23.9532 16.8025C23.8912 19.409 22.9903 21.6309 20.5635 22.9539C19.443 23.5645 18.2098 23.8303 16.9542 23.8472C13.6433 23.8868 10.3324 23.9207 7.02153 23.8472C4.53838 23.7907 2.3818 22.9483 1.00227 20.6924C0.405413 19.7143 0.208337 18.6061 0 17.5036V6.40512L0.00563624 6.39947ZM12.016 2.34C10.3718 2.34 8.72765 2.30608 7.08348 2.34566C4.51586 2.40785 2.93925 3.61212 2.4719 5.83408C2.37055 6.30335 2.29735 6.78958 2.29735 7.27016C2.28046 10.3967 2.24105 13.5233 2.30299 16.6499C2.36493 19.7595 3.93026 21.4217 6.92018 21.5348C10.293 21.6592 13.6714 21.6479 17.0443 21.5348C19.533 21.45 21.0139 20.2514 21.4869 18.0916C21.5714 17.7072 21.6502 17.3114 21.6558 16.9156C21.6727 13.3537 21.8698 9.78612 21.5488 6.22985C21.3574 4.12097 19.9553 2.74708 17.8607 2.45873C15.9181 2.193 13.9642 2.37958 12.016 2.34Z" fill="#616161"/>
<path d="M0.00563624 6.39947L1.42207 7.81146L1.85658 7.37558L1.97086 6.77083L0.00563624 6.39947ZM1.00791 3.2107L-0.699389 2.16898L-0.702 2.17329L1.00791 3.2107ZM6.9596 0.0615039L7.00565 2.06098L7.01021 2.06086L6.9596 0.0615039ZM17.0217 0.0615039L17.0714 -1.93788L17.0689 -1.93794L17.0217 0.0615039ZM22.7088 2.84885L24.3501 1.70605L24.3473 1.70194L22.7088 2.84885ZM23.9532 7.09489L21.9534 7.12473L21.9534 7.12623L23.9532 7.09489ZM23.9532 16.8025L25.9526 16.8501L25.9527 16.8478L23.9532 16.8025ZM20.5635 22.9539L21.5205 24.7101L21.5208 24.7099L20.5635 22.9539ZM16.9542 23.8472L16.9781 25.8471L16.9812 25.8471L16.9542 23.8472ZM7.02153 23.8472L6.97601 25.8467L6.97714 25.8467L7.02153 23.8472ZM1.00227 20.6924L-0.704976 21.7342L-0.703978 21.7358L1.00227 20.6924ZM0 17.5036H-2V17.6909L-1.96522 17.875L0 17.5036ZM0 6.40512L-1.41643 4.99313L-2 5.57853V6.40512H0ZM12.016 2.34L12.0566 0.340417L12.0363 0.340004H12.016V2.34ZM7.08348 2.34566L7.03535 0.346237L7.03505 0.346245L7.08348 2.34566ZM2.4719 5.83408L4.42685 6.25632L4.42908 6.24574L2.4719 5.83408ZM2.29735 7.27016L4.29735 7.28096V7.27016H2.29735ZM2.30299 16.6499L0.30338 16.6895L0.303384 16.6897L2.30299 16.6499ZM6.92018 21.5348L6.8446 23.5334L6.84648 23.5335L6.92018 21.5348ZM17.0443 21.5348L17.1113 23.5337L17.1124 23.5337L17.0443 21.5348ZM21.4869 18.0916L19.5335 17.6625L19.5332 17.6638L21.4869 18.0916ZM21.6558 16.9156L23.6556 16.9441L23.6558 16.9346L23.6558 16.9251L21.6558 16.9156ZM21.5488 6.22985L23.5408 6.05008L23.5407 6.04903L21.5488 6.22985ZM17.8607 2.45873L18.1335 0.477419L18.1318 0.477188L17.8607 2.45873ZM1.97086 6.77083C2.19381 5.59097 2.34266 4.86645 2.71781 4.24811L-0.702 2.17329C-1.52056 3.52248 -1.76587 5.00297 -1.95958 6.0281L1.97086 6.77083ZM2.7152 4.25241C3.62968 2.75363 5.02993 2.10647 7.00565 2.06097L6.91355 -1.93797C3.97927 -1.87039 1.11141 -0.798773 -0.699383 2.16899L2.7152 4.25241ZM7.01021 2.06086C10.3246 1.97696 13.6477 1.98248 16.9746 2.06095L17.0689 -1.93794C13.6839 -2.01778 10.2952 -2.02357 6.90899 -1.93786L7.01021 2.06086ZM16.972 2.06089C18.8094 2.10655 20.1494 2.6802 21.0703 3.99576L24.3473 1.70194C22.4978 -0.940195 19.7837 -1.87047 17.0714 -1.93788L16.972 2.06089ZM21.0674 3.99165C21.6672 4.85308 21.9349 5.88867 21.9534 7.12473L25.9529 7.06505C25.9263 5.28195 25.5297 3.40016 24.3501 1.70605L21.0674 3.99165ZM21.9534 7.12623C22.0039 10.3505 22.026 13.5608 21.9537 16.7573L25.9527 16.8478C26.0267 13.5763 26.0038 10.3073 25.9529 7.06355L21.9534 7.12623ZM21.9537 16.755C21.903 18.8895 21.2176 20.3194 19.6062 21.1979L21.5208 24.7099C24.763 22.9424 25.8794 19.9284 25.9526 16.8501L21.9537 16.755ZM19.6065 21.1978C18.8207 21.626 17.9186 21.834 16.9271 21.8474L16.9812 25.8471C18.501 25.8265 20.0652 25.5031 21.5205 24.7101L19.6065 21.1978ZM16.9303 21.8474C13.617 21.887 10.3382 21.9204 7.06592 21.8477L6.97714 25.8467C10.3267 25.9211 13.6695 25.8866 16.9781 25.8471L16.9303 21.8474ZM7.06706 21.8478C5.04613 21.8017 3.63267 21.1602 2.70852 19.649L-0.703978 21.7358C1.13094 24.7364 4.03062 25.7797 6.97601 25.8467L7.06706 21.8478ZM2.70952 19.6506C2.33756 19.0411 2.18902 18.3166 1.96522 17.1323L-1.96522 17.875C-1.77234 18.8957 -1.52674 20.3875 -0.704975 21.7342L2.70952 19.6506ZM2 17.5036V6.40512H-2V17.5036H2ZM1.41643 7.81711L1.42207 7.81146L-1.4108 4.98748L-1.41643 4.99313L1.41643 7.81711ZM12.016 0.340004C10.4289 0.340004 8.70956 0.305937 7.03535 0.346237L7.13161 4.34508C8.74575 4.30623 10.3148 4.34 12.016 4.34V0.340004ZM7.03505 0.346245C5.45802 0.384443 3.97802 0.779075 2.78161 1.68635C1.56335 2.6102 0.830539 3.92093 0.514727 5.42242L4.42908 6.24574C4.58062 5.52527 4.86979 5.12289 5.19857 4.87356C5.54921 4.60766 6.14133 4.36907 7.13191 4.34507L7.03505 0.346245ZM0.516979 5.41186C0.399274 5.95684 0.297351 6.59511 0.297351 7.27016H4.29735C4.29735 6.98405 4.34182 6.64987 4.42683 6.25631L0.516979 5.41186ZM0.29738 7.25935C0.280596 10.366 0.240791 13.5301 0.30338 16.6895L4.30259 16.6103C4.24131 13.5165 4.28032 10.4275 4.29732 7.28096L0.29738 7.25935ZM0.303384 16.6897C0.340521 18.5542 0.835778 20.2933 2.05947 21.5892C3.29522 22.8978 4.99809 23.4636 6.8446 23.5334L6.99577 19.5362C5.85236 19.493 5.27759 19.1711 4.96772 18.8429C4.64577 18.502 4.32739 17.8552 4.30259 16.6101L0.303384 16.6897ZM6.84648 23.5335C10.2726 23.6598 13.6985 23.6481 17.1113 23.5337L16.9772 19.5359C13.6444 19.6477 10.3134 19.6586 6.99389 19.5362L6.84648 23.5335ZM17.1124 23.5337C18.6582 23.481 20.0961 23.0738 21.2551 22.1656C22.4286 21.246 23.1245 19.9627 23.4406 18.5195L19.5332 17.6638C19.3763 18.3803 19.0953 18.7762 18.7879 19.0171C18.466 19.2693 17.9191 19.5038 16.9761 19.536L17.1124 23.5337ZM23.4403 18.5208C23.5253 18.1341 23.6468 17.5624 23.6556 16.9441L19.656 16.8872C19.6536 17.0603 19.6175 17.2803 19.5335 17.6625L23.4403 18.5208ZM23.6558 16.9251C23.6721 13.4981 23.8731 9.7322 23.5408 6.05008L19.5569 6.40962C19.8665 9.84005 19.6734 13.2093 19.6559 16.9061L23.6558 16.9251ZM23.5407 6.04903C23.4074 4.58127 22.8361 3.26154 21.8402 2.25497C20.8503 1.25442 19.5498 0.6724 18.1335 0.477419L17.588 4.44005C18.2662 4.53342 18.714 4.78251 18.9967 5.06821C19.2734 5.34789 19.4988 5.76955 19.557 6.41067L23.5407 6.04903ZM18.1318 0.477188C17.0163 0.324601 15.9282 0.305893 14.9231 0.314637C13.8661 0.323833 12.9969 0.359518 12.0566 0.340417L11.9754 4.33959C12.9834 4.36007 14.0652 4.32225 14.9579 4.31449C15.9024 4.30627 16.7625 4.32714 17.5896 4.44028L18.1318 0.477188Z" fill="#616161" mask="url(#path-2-inside-1_2486_12090)"/>
<path d="M11.9996 7.06091C9.31031 7.04669 7.07681 9.2483 7.0697 11.9368V11.9394C7.0697 14.6317 9.2702 16.8264 11.9665 16.8406C14.6558 16.8548 16.8893 14.6532 16.8964 11.9647V11.962C16.8964 9.26982 14.6959 7.07508 11.9996 7.06091ZM11.9996 7.06091L11.9943 8.06089L11.9996 7.06091ZM17.1938 11.987L17.193 12.2252C17.0571 14.9165 14.7856 17.115 11.994 17.1474C9.14064 17.1804 6.75163 14.806 6.76109 11.9144C6.77052 9.07882 9.19613 6.69749 11.9967 6.75392L11.9972 6.75393C14.921 6.81131 17.2032 9.13593 17.1938 11.987Z" fill="#616161" stroke="#616161" stroke-width="2"/>
<path d="M18.3873 5.11919L18.3873 5.11914C18.6546 5.11859 18.8886 5.3564 18.8886 5.61189C18.8886 5.82588 18.669 6.07973 18.391 6.08794C18.1112 6.09535 17.8738 5.85059 17.8704 5.60937L17.8705 5.60937L17.8703 5.6026C17.8655 5.37066 18.0643 5.12351 18.3873 5.11919Z" fill="#616161" stroke="#616161" stroke-width="2"/>
</g>
</svg>
