<svg width="24" height="24" viewBox="0 0 24 24" fill="none" xmlns="http://www.w3.org/2000/svg">
<mask id="mask0_2486_12116" style="mask-type:alpha" maskUnits="userSpaceOnUse" x="0" y="0" width="24" height="24">
<rect width="24" height="24" fill="#D9D9D9"/>
</mask>
<g mask="url(#mask0_2486_12116)">
<path d="M4.32899 2.66978C4.32899 3.19647 4.16348 3.60673 3.91437 3.87539C3.67619 4.13226 3.28884 4.33956 2.67013 4.33956C1.63095 4.33956 1.01126 3.58974 1.01126 2.80327C1.01126 1.78495 1.72405 1 2.67013 1C3.67659 1 4.32899 1.71639 4.32899 2.66978Z" fill="#616161" stroke="#616161" stroke-width="2"/>
<path d="M1.01956 7.66602H4.3303V22.9985H1.01956V7.66602Z" fill="#616161" stroke="#616161" stroke-width="2"/>
<path d="M18.0716 7.93476H18.3732C19.6615 7.99697 20.7262 8.4719 21.4942 9.34105C22.3318 10.289 22.9211 11.8253 22.9211 14.1291V22.9932H19.6103V14.7966C19.6103 13.6318 19.3961 12.4809 18.818 11.589C18.2026 10.6396 17.2229 10.0659 15.9515 10.0659C13.7939 10.0659 12.8987 11.8887 12.5058 12.8092L12.4896 12.8473L12.4765 12.8866C12.2918 13.4431 12.2922 13.9887 12.2926 14.4716C12.2926 14.4934 12.2926 14.5151 12.2926 14.5366V23.0003H8.98188V12.5343C8.98188 11.5122 8.94794 10.5629 8.91467 9.69616C8.91215 9.63054 8.90964 9.56548 8.90715 9.50095C8.89137 9.09194 8.87642 8.7045 8.86562 8.33523H11.7382L11.9006 9.72091L12.0041 10.6045H12.8938H13.0267H13.5822L13.8757 10.133C14.4134 9.26914 15.7186 7.93476 18.0716 7.93476Z" fill="#616161" stroke="#616161" stroke-width="2"/>
</g>
</svg>
