<svg width="38" height="38" viewBox="0 0 38 38" fill="none" xmlns="http://www.w3.org/2000/svg">
<path d="M19.5 27.6064C19.9482 27.6064 20.2222 27.291 20.2222 26.8345V25.1992L21.3594 25.9048C21.708 26.1538 22.0981 26.1289 22.3389 25.7803C22.5298 25.4731 22.4634 25.083 22.0898 24.8589L20.2222 23.7632V22.7588L20.0396 19.9531L22.3887 21.5137L23.252 22.0117L23.2769 24.1699C23.2852 24.6099 23.584 24.8755 23.9492 24.8506C24.3726 24.834 24.5801 24.4937 24.5386 24.0786L24.4971 22.7256L25.9248 23.5557C26.3149 23.7881 26.7217 23.6885 26.9375 23.3066C27.145 22.9248 27.0288 22.5098 26.647 22.2939L25.2275 21.4722L26.4146 20.833C26.7881 20.6587 26.979 20.3101 26.7881 19.9365C26.6138 19.6045 26.2402 19.48 25.8584 19.6875L23.9741 20.75L23.1108 20.252L20.5708 19.0068L23.1108 17.7617L23.9741 17.2554L25.8584 18.3262C26.2402 18.5337 26.6221 18.4009 26.7881 18.0771C26.979 17.7036 26.7964 17.355 26.4062 17.1724L25.2275 16.5415L26.647 15.7197C27.0454 15.4956 27.1533 15.0972 26.9375 14.707C26.73 14.3335 26.3149 14.2256 25.9248 14.458L24.4971 15.2715L24.5386 13.9351C24.5801 13.5117 24.3726 13.1797 23.9492 13.1631C23.584 13.1382 23.2852 13.4038 23.2769 13.8354L23.252 16.002L22.3887 16.5L20.0396 18.0605L20.2222 15.2549V14.2505L22.0898 13.1548C22.4634 12.9224 22.5298 12.5405 22.3389 12.2251C22.1064 11.8765 21.708 11.8599 21.3594 12.1089L20.2222 12.8145V11.1709C20.2222 10.7144 19.9482 10.4072 19.5 10.4072C19.0684 10.4072 18.7778 10.7227 18.7778 11.1709V12.8145L17.624 12.1089C17.2754 11.8599 16.8936 11.8765 16.6528 12.2251C16.4536 12.5405 16.5366 12.9224 16.9102 13.1548L18.7778 14.2505V15.2549L18.9604 18.0688L16.6113 16.5L15.7397 15.9937L15.7231 13.8354C15.7148 13.4038 15.416 13.1382 15.0508 13.1631C14.6274 13.1797 14.4199 13.5117 14.4614 13.9351L14.5029 15.2715L13.0752 14.458C12.6934 14.2339 12.27 14.3335 12.0542 14.707C11.8301 15.0972 11.9629 15.5039 12.3447 15.7197L13.7725 16.5415L12.5854 17.1724C12.2036 17.355 12.021 17.6953 12.2036 18.0771C12.3696 18.4092 12.7515 18.5337 13.1416 18.3262L15.0176 17.2637L15.8892 17.7617L18.4292 19.0068L15.8892 20.252L15.0176 20.75L13.1333 19.6875C12.7598 19.4717 12.3779 19.6045 12.2202 19.9282C12.021 20.3184 12.2036 20.6587 12.5854 20.833L13.7725 21.4722L12.353 22.2939C11.9629 22.5098 11.8384 22.9331 12.0542 23.3066C12.2783 23.6885 12.6934 23.7798 13.0752 23.5557L14.5029 22.7339L14.4614 24.0703C14.4116 24.4937 14.6274 24.834 15.0508 24.8506C15.416 24.8672 15.7148 24.6016 15.7231 24.1699L15.748 22.0034L16.6113 21.5137L18.9604 19.9531L18.7778 22.7588V23.7549L16.9102 24.8589C16.5366 25.083 16.4619 25.4731 16.6528 25.7803C16.8936 26.1289 17.2754 26.1538 17.624 25.9048L18.7778 25.1909V26.8345C18.7778 27.291 19.0684 27.6064 19.5 27.6064Z" fill="white"/>
</svg>
